<svg xmlns="http://www.w3.org/2000/svg" xmlns:xlink="http://www.w3.org/1999/xlink" width="500" zoomAndPan="magnify" viewBox="0 0 375 374.999991" height="500" preserveAspectRatio="xMidYMid meet" version="1.0"><defs><g/><clipPath id="81eee7a480"><path d="M 125.375 113.191406 L 275.375 113.191406 L 275.375 242.941406 L 125.375 242.941406 Z M 125.375 113.191406 " clip-rule="nonzero"/></clipPath><clipPath id="209c6868c1"><path d="M 160.953125 161.285156 L 239.703125 161.285156 L 239.703125 228.5 L 160.953125 228.5 Z M 160.953125 161.285156 " clip-rule="nonzero"/></clipPath><clipPath id="ff7306f891"><path d="M 166.472656 178 L 234.277344 178 L 234.277344 228.5 L 166.472656 228.5 Z M 166.472656 178 " clip-rule="nonzero"/></clipPath><clipPath id="37b6a7bf88"><path d="M 196 149.75 L 205 149.75 L 205 158 L 196 158 Z M 196 149.75 " clip-rule="nonzero"/></clipPath><clipPath id="8b1a6387a5"><path d="M 166.921875 161.121094 L 234.421875 161.121094 L 234.421875 228.621094 L 166.921875 228.621094 Z M 166.921875 161.121094 " clip-rule="nonzero"/></clipPath></defs><g clip-path="url(#81eee7a480)"><path fill="#62119b" d="M 125.375 243.109375 L 200.375 113.207031 L 275.375 243.109375 Z M 125.375 243.109375 " fill-opacity="1" fill-rule="nonzero"/></g><g clip-path="url(#209c6868c1)"><path fill="#000000" d="M 236.011719 209.050781 C 233.859375 207.933594 233.195312 208.179688 231.34375 208.34375 C 229.488281 208.507812 228.359375 209.902344 224.71875 205.148438 C 224.71875 205.148438 223.691406 209.144531 221.125 207.628906 C 218.5625 206.109375 215.507812 203.269531 215.507812 203.269531 C 215.507812 203.269531 216.417969 205.804688 213.847656 205.59375 C 211.59375 205.414062 208.40625 201.679688 207.648438 200.757812 C 208.8125 204.75 211.082031 211.527344 214.480469 214.605469 C 218.742188 218.464844 208.160156 217.527344 207.519531 223.554688 C 207.480469 223.898438 206.9375 224.710938 206.164062 225.707031 C 202.894531 229.929688 196.203125 229.410156 193.890625 224.597656 C 193.730469 224.269531 193.628906 223.972656 193.59375 223.71875 C 192.8125 217.710938 182.253906 218.898438 186.421875 214.941406 C 189.75 211.78125 191.855469 204.953125 192.921875 200.933594 C 192.1875 201.875 189.089844 205.679688 186.84375 205.914062 C 184.277344 206.1875 185.125 203.628906 185.125 203.628906 C 185.125 203.628906 182.136719 206.546875 179.613281 208.121094 C 177.085938 209.699219 175.960938 205.726562 175.960938 205.726562 C 172.433594 210.570312 171.273438 209.203125 169.417969 209.082031 C 167.558594 208.960938 166.890625 208.730469 164.765625 209.902344 C 162.636719 211.070312 159.589844 209.132812 161.617188 207.585938 C 163.644531 206.035156 168.46875 191.988281 168.886719 187.414062 C 169.308594 182.839844 174.371094 174.710938 183.238281 177.957031 C 192.105469 181.203125 193.390625 179.542969 193.390625 179.542969 L 193.664062 167.414062 C 193.75 164.449219 195.914062 162.015625 198.746094 161.496094 C 198.757812 161.496094 198.773438 161.492188 198.785156 161.488281 C 198.941406 161.460938 199.101562 161.4375 199.265625 161.421875 C 199.339844 161.414062 199.417969 161.410156 199.492188 161.40625 C 199.582031 161.402344 199.667969 161.390625 199.757812 161.390625 C 199.777344 161.386719 199.796875 161.390625 199.816406 161.390625 C 199.835938 161.390625 199.855469 161.386719 199.875 161.386719 C 199.960938 161.386719 200.046875 161.394531 200.136719 161.398438 C 200.210938 161.402344 200.289062 161.402344 200.367188 161.410156 C 200.527344 161.421875 200.6875 161.441406 200.847656 161.464844 C 200.859375 161.46875 200.875 161.46875 200.886719 161.472656 C 203.730469 161.921875 205.949219 164.304688 206.109375 167.265625 L 206.671875 179.386719 C 206.671875 179.386719 207.996094 181.011719 216.785156 177.558594 C 225.570312 174.101562 230.828125 182.105469 231.355469 186.667969 C 231.882812 191.230469 237.039062 205.160156 239.101562 206.660156 C 241.164062 208.160156 238.167969 210.167969 236.011719 209.050781 " fill-opacity="1" fill-rule="nonzero"/></g><g clip-path="url(#ff7306f891)"><path fill="#fbf66a" d="M 204.433594 178.152344 C 204.691406 178.882812 205.351562 179.4375 206.070312 179.753906 C 206.800781 180.070312 207.609375 180.171875 208.386719 180.085938 C 209.039062 180.019531 209.65625 179.824219 210.222656 179.558594 C 207.195312 180.113281 206.597656 179.386719 206.597656 179.386719 L 206.5625 178.621094 C 206.503906 178.617188 206.445312 178.621094 206.386719 178.617188 C 205.761719 178.5625 205.144531 178.433594 204.433594 178.152344 Z M 193.808594 179.730469 C 194.617188 179.453125 195.378906 179 195.898438 178.324219 C 195.0625 178.453125 194.320312 178.546875 193.582031 178.570312 C 193.503906 178.574219 193.421875 178.566406 193.34375 178.570312 L 193.320312 179.542969 C 193.320312 179.542969 192.933594 180.035156 191.140625 179.957031 C 191.179688 179.960938 191.214844 179.972656 191.25 179.976562 C 192.109375 180.078125 192.992188 180 193.808594 179.730469 Z M 205.960938 217.550781 C 205.167969 216.46875 204.363281 215.394531 203.453125 214.359375 C 203.8125 215.691406 204.347656 216.949219 204.960938 218.160156 C 205.574219 219.375 206.269531 220.546875 207.046875 221.660156 C 207.246094 221.949219 207.464844 222.226562 207.675781 222.507812 C 207.863281 221.96875 208.136719 221.5 208.476562 221.085938 C 208.410156 220.992188 208.347656 220.894531 208.28125 220.800781 C 207.523438 219.707031 206.75 218.628906 205.960938 217.550781 Z M 199.964844 220.5625 C 199.554688 221.960938 199.347656 223.382812 199.183594 224.796875 C 199.046875 226.011719 198.964844 227.226562 198.910156 228.441406 C 199.398438 228.527344 199.894531 228.570312 200.394531 228.5625 C 200.441406 225.902344 200.351562 223.246094 199.964844 220.5625 Z M 194.707031 217.832031 C 195.660156 216.683594 196.488281 215.433594 197.179688 214.113281 C 197.871094 212.796875 198.425781 211.402344 198.734375 209.945312 L 196.183594 213.492188 C 195.332031 214.652344 194.453125 215.769531 193.546875 216.871094 C 192.683594 217.914062 191.789062 218.9375 190.863281 219.9375 C 191.210938 220.160156 191.546875 220.402344 191.855469 220.671875 C 192.890625 219.816406 193.851562 218.871094 194.707031 217.832031 Z M 230.476562 202.003906 C 229.839844 200.84375 229.222656 199.667969 228.523438 198.484375 C 228.628906 199.855469 228.953125 201.191406 229.402344 202.476562 C 229.851562 203.765625 230.425781 205.015625 231.113281 206.195312 C 231.523438 206.898438 231.976562 207.578125 232.464844 208.230469 C 233.054688 208.183594 233.558594 208.1875 234.15625 208.335938 C 233.566406 207.371094 232.984375 206.40625 232.414062 205.433594 C 231.757812 204.304688 231.109375 203.164062 230.476562 202.003906 Z M 222.644531 198.640625 C 222.8125 200.136719 223.023438 201.585938 223.300781 203.042969 C 223.519531 204.175781 223.78125 205.3125 224.132812 206.433594 C 224.484375 205.769531 224.648438 205.148438 224.648438 205.148438 C 225.035156 205.652344 225.386719 206.074219 225.71875 206.445312 C 225.285156 205.230469 224.875 203.988281 224.433594 202.734375 C 223.941406 201.347656 223.40625 199.945312 222.644531 198.640625 Z M 214.011719 199.21875 C 213.492188 198.113281 212.914062 197.011719 212.144531 196.019531 C 212.339844 197.257812 212.601562 198.4375 212.910156 199.617188 C 213.222656 200.796875 213.578125 201.96875 214.042969 203.117188 C 214.34375 203.871094 214.703125 204.609375 215.113281 205.324219 C 215.953125 204.703125 215.4375 203.269531 215.4375 203.269531 C 215.4375 203.269531 215.613281 203.429688 215.902344 203.6875 C 215.75 203.308594 215.59375 202.933594 215.4375 202.550781 C 214.992188 201.445312 214.53125 200.328125 214.011719 199.21875 Z M 185.171875 199.113281 C 184.707031 200.351562 184.308594 201.5625 183.882812 202.753906 C 183.53125 203.75 183.152344 204.722656 182.765625 205.695312 C 183.742188 204.867188 184.527344 204.132812 184.867188 203.808594 C 184.921875 203.554688 184.976562 203.304688 185.019531 203.046875 C 185.242188 201.753906 185.324219 200.429688 185.171875 199.113281 Z M 177.15625 201.808594 C 176.726562 202.875 176.394531 203.925781 176.0625 204.972656 L 175.777344 205.878906 C 175.816406 205.828125 175.851562 205.78125 175.890625 205.726562 C 175.890625 205.726562 176.175781 206.730469 176.777344 207.527344 C 176.96875 206.765625 177.125 205.996094 177.207031 205.210938 C 177.332031 204.085938 177.347656 202.945312 177.15625 201.808594 Z M 171.628906 203.328125 C 170.675781 205.335938 169.523438 207.265625 168.113281 208.996094 C 167.578125 208.964844 167.117188 208.976562 166.589844 209.101562 C 166.742188 208.886719 166.902344 208.671875 167.050781 208.453125 C 168.269531 206.617188 169.347656 204.691406 170.265625 202.691406 C 171.210938 200.695312 172.007812 198.625 172.785156 196.535156 C 173.550781 194.4375 174.269531 192.308594 175.101562 190.195312 C 174.878906 192.457031 174.476562 194.683594 173.90625 196.882812 C 173.347656 199.085938 172.589844 201.246094 171.628906 203.328125 " fill-opacity="1" fill-rule="nonzero"/></g><path fill="#fcf8d2" d="M 191.800781 191.519531 C 191.800781 189.15625 192.757812 187.015625 194.3125 185.460938 C 194.734375 185.324219 195.183594 185.199219 195.644531 185.082031 C 188.484375 186.753906 186.089844 191.910156 186.089844 191.910156 C 186.089844 191.910156 188.984375 196.871094 195.59375 198.628906 C 193.304688 197.089844 191.800781 194.480469 191.800781 191.519531 Z M 195.617188 198.644531 C 195.796875 198.691406 195.976562 198.734375 196.15625 198.78125 C 195.960938 198.734375 195.78125 198.679688 195.59375 198.628906 C 195.601562 198.632812 195.609375 198.640625 195.617188 198.644531 Z M 206.554688 185.578125 C 208.035156 187.125 208.945312 189.210938 208.945312 191.519531 C 208.945312 194.488281 207.433594 197.105469 205.140625 198.644531 C 211.757812 196.898438 214.65625 191.910156 214.65625 191.910156 C 214.65625 191.910156 212.273438 187.589844 206.554688 185.578125 Z M 206.535156 185.570312 C 206.121094 185.425781 205.691406 185.289062 205.238281 185.171875 C 205.691406 185.296875 206.117188 185.429688 206.535156 185.570312 Z M 206.535156 185.570312 C 206.542969 185.574219 206.546875 185.574219 206.554688 185.578125 C 206.554688 185.578125 206.554688 185.578125 206.550781 185.574219 C 206.546875 185.574219 206.539062 185.574219 206.535156 185.570312 " fill-opacity="1" fill-rule="nonzero"/><path fill="#fcf8d2" d="M 205.460938 181.839844 C 205.183594 184.164062 204.261719 186.234375 202.699219 187.980469 C 202.1875 188.550781 203.082031 189.332031 203.59375 188.761719 C 205.277344 186.878906 206.324219 184.59375 206.625 182.082031 C 206.714844 181.324219 205.554688 181.082031 205.460938 181.839844 Z M 194.199219 181.898438 C 193.789062 184.34375 194.925781 186.722656 197.074219 187.953125 C 197.742188 188.332031 198.265625 187.265625 197.605469 186.890625 C 195.929688 185.929688 195.042969 184.039062 195.363281 182.136719 C 195.488281 181.382812 194.324219 181.144531 194.199219 181.898438 Z M 200.074219 180.503906 C 200.128906 179.742188 201.292969 179.992188 201.238281 180.742188 C 201.089844 182.753906 201.152344 184.753906 201.394531 186.75 C 201.488281 187.511719 200.300781 187.585938 200.210938 186.832031 C 199.953125 184.71875 199.917969 182.625 200.074219 180.503906 " fill-opacity="1" fill-rule="nonzero"/><path fill="#000000" d="M 200.375 184.554688 C 202.765625 184.554688 204.804688 184.964844 206.546875 185.578125 C 208.03125 187.121094 208.945312 189.210938 208.945312 191.515625 C 208.945312 194.488281 207.433594 197.105469 205.136719 198.644531 C 203.71875 199.019531 202.140625 199.257812 200.375 199.257812 C 198.605469 199.257812 197.027344 199.019531 195.609375 198.644531 C 193.3125 197.105469 191.800781 194.488281 191.800781 191.515625 C 191.800781 189.152344 192.757812 187.011719 194.308594 185.460938 C 196.007812 184.914062 198.003906 184.554688 200.375 184.554688 " fill-opacity="1" fill-rule="nonzero"/><path fill="#000000" d="M 229.882812 216.804688 C 227.59375 216.804688 225.734375 218.664062 225.734375 220.957031 C 225.734375 223.25 227.59375 225.105469 229.882812 225.105469 C 232.175781 225.105469 234.035156 223.25 234.035156 220.957031 C 234.035156 218.664062 232.175781 216.804688 229.882812 216.804688 Z M 175.011719 220.957031 C 175.011719 223.25 173.152344 225.105469 170.863281 225.105469 C 168.570312 225.105469 166.710938 223.25 166.710938 220.957031 C 166.710938 218.664062 168.570312 216.804688 170.863281 216.804688 C 173.152344 216.804688 175.011719 218.664062 175.011719 220.957031 " fill-opacity="1" fill-rule="nonzero"/><g clip-path="url(#37b6a7bf88)"><path fill="#000000" d="M 204.199219 153.601562 L 200.375 157.425781 L 196.546875 153.601562 L 200.375 149.773438 L 204.199219 153.601562 " fill-opacity="1" fill-rule="nonzero"/></g><g clip-path="url(#8b1a6387a5)"><path fill="#000000" d="M 200.671875 228.621094 C 182.066406 228.621094 166.921875 213.476562 166.921875 194.871094 C 166.921875 176.265625 182.066406 161.121094 200.671875 161.121094 C 219.273438 161.121094 234.421875 176.265625 234.421875 194.871094 C 234.421875 213.476562 219.273438 228.621094 200.671875 228.621094 Z M 200.671875 161.621094 C 182.332031 161.621094 167.421875 176.53125 167.421875 194.871094 C 167.421875 213.210938 182.332031 228.121094 200.671875 228.121094 C 219.007812 228.121094 233.921875 213.210938 233.921875 194.871094 C 233.921875 176.535156 219.007812 161.621094 200.671875 161.621094 Z M 200.671875 161.621094 " fill-opacity="1" fill-rule="nonzero"/></g><g fill="#ffffff" fill-opacity="1"><g transform="translate(195.157624, 193.467398)"><g><path d="M 1.679688 -2.40625 L 0.253906 -2.40625 C 0.222656 -2.40625 0.207031 -2.386719 0.207031 -2.363281 C 0.207031 -2.335938 0.222656 -2.3125 0.253906 -2.3125 L 0.394531 -2.3125 L 0.394531 -0.0976562 L 0.238281 -0.0976562 C 0.207031 -0.0976562 0.1875 -0.0742188 0.1875 -0.046875 C 0.1875 -0.0234375 0.207031 0 0.238281 0 L 1.164062 0 C 1.203125 0 1.222656 -0.0195312 1.222656 -0.046875 C 1.222656 -0.0703125 1.203125 -0.0976562 1.164062 -0.0976562 L 0.933594 -0.0976562 L 0.933594 -1.203125 L 1.523438 -1.203125 L 1.523438 -1.039062 C 1.523438 -1.007812 1.550781 -0.992188 1.574219 -0.992188 C 1.601562 -0.992188 1.625 -1.007812 1.625 -1.039062 L 1.625 -1.464844 C 1.625 -1.496094 1.597656 -1.511719 1.574219 -1.511719 C 1.546875 -1.511719 1.523438 -1.496094 1.523438 -1.464844 L 1.523438 -1.300781 L 0.933594 -1.300781 L 0.933594 -2.3125 L 1.625 -2.3125 L 1.625 -1.96875 C 1.625 -1.9375 1.652344 -1.917969 1.675781 -1.917969 C 1.699219 -1.917969 1.726562 -1.9375 1.726562 -1.96875 L 1.726562 -2.359375 C 1.726562 -2.386719 1.707031 -2.40625 1.679688 -2.40625 Z M 0.828125 -2.3125 L 0.828125 -0.0976562 L 0.5 -0.0976562 L 0.5 -2.3125 Z M 0.828125 -2.3125 "/></g></g></g><g fill="#ffffff" fill-opacity="1"><g transform="translate(196.952617, 193.467398)"><g><path d="M 1.351562 -2.460938 C 0.601562 -2.460938 0.101562 -1.957031 0.101562 -1.203125 C 0.101562 -0.453125 0.601562 0.0507812 1.351562 0.0507812 C 2.097656 0.0507812 2.597656 -0.453125 2.597656 -1.203125 C 2.597656 -1.957031 2.097656 -2.460938 1.351562 -2.460938 Z M 0.734375 -0.195312 L 0.734375 -2.214844 C 0.90625 -2.3125 1.117188 -2.367188 1.351562 -2.367188 C 1.585938 -2.367188 1.792969 -2.3125 1.964844 -2.214844 L 1.964844 -0.195312 C 1.792969 -0.101562 1.585938 -0.0429688 1.351562 -0.0429688 C 1.117188 -0.0429688 0.90625 -0.101562 0.734375 -0.195312 Z M 0.203125 -1.203125 C 0.203125 -1.613281 0.359375 -1.941406 0.632812 -2.144531 L 0.632812 -0.265625 C 0.359375 -0.464844 0.203125 -0.792969 0.203125 -1.203125 Z M 2.066406 -0.265625 L 2.066406 -2.144531 C 2.339844 -1.945312 2.496094 -1.617188 2.496094 -1.203125 C 2.496094 -0.792969 2.339844 -0.464844 2.066406 -0.265625 Z M 2.066406 -0.265625 "/></g></g></g><g fill="#ffffff" fill-opacity="1"><g transform="translate(199.651986, 193.467398)"><g><path d="M 2.214844 -0.335938 C 2.203125 -0.347656 2.195312 -0.351562 2.179688 -0.351562 C 2.167969 -0.351562 2.15625 -0.34375 2.144531 -0.332031 C 1.949219 -0.128906 1.710938 -0.0429688 1.277344 -0.0429688 C 1.074219 -0.0429688 0.882812 -0.101562 0.726562 -0.199219 L 0.726562 -2.210938 C 0.886719 -2.3125 1.074219 -2.367188 1.277344 -2.367188 C 1.714844 -2.367188 2.011719 -2.160156 2.011719 -1.863281 L 2.011719 -1.847656 C 2.011719 -1.8125 2.039062 -1.796875 2.0625 -1.796875 C 2.085938 -1.796875 2.113281 -1.8125 2.113281 -1.847656 L 2.113281 -2.410156 C 2.113281 -2.441406 2.085938 -2.457031 2.0625 -2.457031 C 2.039062 -2.457031 2.011719 -2.441406 2.011719 -2.410156 L 2.011719 -2.171875 C 1.871094 -2.355469 1.597656 -2.460938 1.277344 -2.460938 C 0.691406 -2.460938 0.101562 -2.003906 0.101562 -1.203125 C 0.101562 -0.398438 0.695312 0.0507812 1.277344 0.0507812 C 1.734375 0.0507812 2 -0.0429688 2.214844 -0.261719 C 2.226562 -0.273438 2.230469 -0.285156 2.230469 -0.300781 C 2.230469 -0.3125 2.226562 -0.328125 2.214844 -0.335938 Z M 0.207031 -1.203125 C 0.207031 -1.59375 0.367188 -1.929688 0.621094 -2.136719 L 0.621094 -0.273438 C 0.363281 -0.476562 0.207031 -0.8125 0.207031 -1.203125 Z M 0.207031 -1.203125 "/></g></g></g><g fill="#ffffff" fill-opacity="1"><g transform="translate(201.89401, 193.467398)"><g><path d="M 2.363281 -2.40625 L 1.492188 -2.40625 C 1.464844 -2.40625 1.4375 -2.390625 1.4375 -2.363281 C 1.4375 -2.335938 1.464844 -2.3125 1.492188 -2.3125 L 1.652344 -2.3125 L 1.652344 -0.148438 C 1.535156 -0.0859375 1.398438 -0.0507812 1.257812 -0.0507812 C 1.117188 -0.0507812 0.984375 -0.0859375 0.867188 -0.148438 L 0.867188 -2.3125 L 1.023438 -2.3125 C 1.050781 -2.3125 1.074219 -2.332031 1.074219 -2.359375 C 1.074219 -2.386719 1.050781 -2.40625 1.023438 -2.40625 L 0.132812 -2.40625 C 0.105469 -2.40625 0.0859375 -2.386719 0.0859375 -2.359375 C 0.0859375 -2.332031 0.105469 -2.3125 0.132812 -2.3125 L 0.296875 -2.3125 L 0.296875 -0.90625 C 0.296875 -0.378906 0.730469 0.0507812 1.257812 0.0507812 C 1.789062 0.0507812 2.222656 -0.378906 2.222656 -0.90625 L 2.222656 -2.3125 L 2.363281 -2.3125 C 2.386719 -2.3125 2.410156 -2.335938 2.410156 -2.363281 C 2.410156 -2.390625 2.386719 -2.40625 2.363281 -2.40625 Z M 0.398438 -0.90625 L 0.398438 -2.3125 L 0.761719 -2.3125 L 0.761719 -0.210938 C 0.542969 -0.363281 0.398438 -0.617188 0.398438 -0.90625 Z M 2.117188 -2.3125 L 2.117188 -0.90625 C 2.117188 -0.617188 1.972656 -0.363281 1.753906 -0.210938 L 1.753906 -2.3125 Z M 2.117188 -2.3125 "/></g></g></g><g fill="#ffffff" fill-opacity="1"><g transform="translate(204.390499, 193.467398)"><g><path d="M 1.492188 -1.027344 L 0.472656 -2.238281 C 0.570312 -2.3125 0.707031 -2.355469 0.878906 -2.355469 C 1.152344 -2.355469 1.410156 -2.15625 1.410156 -1.957031 L 1.410156 -1.902344 C 1.410156 -1.875 1.433594 -1.851562 1.460938 -1.851562 C 1.488281 -1.851562 1.511719 -1.875 1.511719 -1.902344 L 1.511719 -2.40625 C 1.511719 -2.433594 1.488281 -2.457031 1.460938 -2.457031 C 1.433594 -2.457031 1.410156 -2.433594 1.410156 -2.40625 L 1.410156 -2.21875 C 1.289062 -2.363281 1.082031 -2.457031 0.878906 -2.457031 C 0.457031 -2.457031 0.199219 -2.214844 0.199219 -1.902344 C 0.199219 -1.738281 0.273438 -1.5625 0.417969 -1.390625 L 1.390625 -0.234375 C 1.277344 -0.125 1.105469 -0.0507812 0.902344 -0.0507812 C 0.558594 -0.0507812 0.25 -0.269531 0.25 -0.507812 L 0.25 -0.605469 C 0.25 -0.632812 0.226562 -0.652344 0.199219 -0.652344 C 0.171875 -0.652344 0.148438 -0.632812 0.148438 -0.605469 L 0.148438 0 C 0.148438 0.0273438 0.171875 0.046875 0.199219 0.046875 C 0.226562 0.046875 0.25 0.0273438 0.25 0 L 0.25 -0.230469 C 0.390625 -0.0546875 0.65625 0.0507812 0.902344 0.0507812 C 1.355469 0.0507812 1.652344 -0.261719 1.652344 -0.605469 C 1.652344 -0.75 1.605469 -0.894531 1.492188 -1.027344 Z M 0.300781 -1.902344 C 0.300781 -2 0.335938 -2.09375 0.394531 -2.167969 L 1.414062 -0.960938 C 1.507812 -0.851562 1.550781 -0.726562 1.550781 -0.605469 C 1.550781 -0.503906 1.515625 -0.398438 1.457031 -0.3125 L 0.5 -1.453125 C 0.371094 -1.609375 0.300781 -1.761719 0.300781 -1.902344 Z M 0.300781 -1.902344 "/></g></g></g></svg>